<?xml version="1.0" encoding="utf-8"?>
<!-- Generator: Adobe Adobe Illustrator 24.2.0, SVG Export Plug-In . SVG Version: 6.00 Build 0)  -->
<svg version="1.1" xmlns="http://www.w3.org/2000/svg" xmlns:xlink="http://www.w3.org/1999/xlink" x="0px" y="0px" width="38px"
	 height="38px" viewBox="0 0 38 38" style="enable-background:new 0 0 38 38;" xml:space="preserve">
<style type="text/css">
	.st0{display:none;fill:none;stroke:#000000;stroke-miterlimit:10;}
	.st1{fill:none;stroke:#000000;stroke-miterlimit:10;}
</style>
<g id="Layer_1">
	<circle class="st0" cx="19" cy="19" r="6.5"/>
	<g>
		<path class="st1" d="M20.51,25.08c0.39,1.6,0.38,2.8,0.09,4.21c-1.24,0.34-2.04,0.31-3.38-0.05c0.14-1.42,0.42-2.77,0.06-4.2"/>
		<path class="st1" d="M16.65,24.81c-0.62,1.52-1.34,2.49-2.4,3.46c-1.21-0.45-1.83-0.94-2.71-2.03c0.95-1.07,1.97-2,2.52-3.36"/>
		<path class="st1" d="M13.68,22.31c-1.4,0.86-2.55,1.23-3.97,1.39c-0.71-1.08-0.93-1.84-1-3.23c1.4-0.31,2.77-0.46,4.01-1.24"/>
		<path class="st1" d="M12.75,18.56c-1.64-0.12-2.78-0.51-4.03-1.21c0.06-1.29,0.33-2.03,1.09-3.2c1.31,0.58,2.51,1.26,3.98,1.36"/>
		<path class="st1" d="M14.21,14.97c-1.25-1.06-1.95-2.04-2.55-3.35c0.81-1.01,1.46-1.45,2.77-1.95c0.72,1.24,1.29,2.49,2.42,3.43"
			/>
		<path class="st1" d="M17.49,12.92c-0.39-1.6-0.38-2.8-0.09-4.21c1.24-0.34,2.04-0.31,3.38,0.05c-0.14,1.42-0.42,2.77-0.06,4.2"/>
		<path class="st1" d="M21.35,13.19c0.62-1.52,1.34-2.49,2.4-3.46c1.21,0.45,1.83,0.94,2.71,2.03c-0.95,1.07-1.97,2-2.52,3.36"/>
		<path class="st1" d="M24.32,15.69c1.4-0.86,2.55-1.23,3.97-1.39c0.71,1.08,0.93,1.84,1,3.23c-1.4,0.31-2.77,0.46-4.01,1.24"/>
		<path class="st1" d="M25.25,19.44c1.64,0.12,2.78,0.51,4.03,1.21c-0.06,1.29-0.33,2.03-1.09,3.2c-1.31-0.58-2.51-1.26-3.98-1.36"
			/>
		<path class="st1" d="M23.79,23.03c1.25,1.06,1.95,2.04,2.55,3.35c-0.81,1.01-1.46,1.45-2.77,1.95c-0.72-1.24-1.29-2.49-2.42-3.43"
			/>
	</g>
	<circle class="st1" cx="19" cy="19" r="2"/>
</g>
<g id="Layer_2">
</g>
</svg>
