<?xml version="1.0" encoding="utf-8"?>
<!-- Generator: Adobe Adobe Illustrator 24.2.0, SVG Export Plug-In . SVG Version: 6.00 Build 0)  -->
<svg version="1.1" xmlns="http://www.w3.org/2000/svg" xmlns:xlink="http://www.w3.org/1999/xlink" x="0px" y="0px" width="38px"
	 height="38px" viewBox="0 0 38 38" style="enable-background:new 0 0 38 38;" xml:space="preserve">
<style type="text/css">
	.st0{display:none;fill:none;stroke:#000000;stroke-miterlimit:10;}
	.st1{fill:none;stroke:#000000;stroke-miterlimit:10;}
	.st2{fill:#FFFFFF;stroke:#000000;stroke-miterlimit:10;}
	.st3{stroke:#000000;stroke-linecap:round;stroke-linejoin:round;stroke-miterlimit:10;}
</style>
<g id="Layer_1">
</g>
<g id="Layer_2">
</g>
<g id="Layer_3">
	<g>
		<g>
			<path class="st3" d="M19,16.56c-0.29,0-0.56-0.03-0.83-0.07v4.61h1.67v-4.61C19.56,16.53,19.29,16.56,19,16.56z"/>
		</g>
	</g>
	<ellipse class="st3" cx="19" cy="21.55" rx="0.83" ry="0.9"/>
	<g>
		<g>
			<path class="st3" d="M23.57,14.29c-0.4,0.91-1.07,1.69-1.91,2.22v0.79c1.26,0.85,2.08,2.3,2.08,3.93c0,2.62-2.13,4.75-4.75,4.75
				s-4.75-2.13-4.75-4.75c0-1.63,0.83-3.08,2.08-3.93v-0.79c-0.84-0.53-1.5-1.3-1.91-2.22h-2.68v12.36h14.5V14.29H23.57z
				 M13.44,25.75c-0.55,0-1-0.45-1-1c0-0.55,0.45-1,1-1c0.55,0,1,0.45,1,1C14.44,25.3,13.99,25.75,13.44,25.75z"/>
		</g>
	</g>
	<circle class="st3" cx="19" cy="12.47" r="2.72"/>
</g>
</svg>
